<svg width="244" height="244" viewBox="0 0 244 244" fill="none" xmlns="http://www.w3.org/2000/svg">
<path d="M223.737 91.9091C211.485 62.6022 173.829 27.2909 173.829 27.2909C173.829 27.2909 185.992 57.4956 177.185 97.4341L191.444 85.0922C191.444 85.0922 205.021 90.9178 206.545 105.234C208.442 122.926 198.302 148.162 198.302 148.162C198.302 148.162 175.934 141.102 141.752 141.593L129.524 62.0375L158.587 81.0906L122 0.125L85.4009 81.0906L114.476 62.0375L102.248 141.593C68.0581 141.102 45.69 148.162 45.69 148.162C45.69 148.162 35.5581 122.926 37.4512 105.234C38.9747 90.9178 52.5434 85.0922 52.5434 85.0922L66.8069 97.4341C57.9994 57.4916 70.1625 27.2909 70.1625 27.2909C70.1625 27.2909 32.5031 62.6022 20.2547 91.9091C7.67312 122 0.125 157.823 0.125 157.823L26.1209 181.849C26.1209 181.849 49.07 175.089 66.5956 173.732C83.3697 172.44 102.874 172.115 102.874 172.115L100.363 207.503L122 243.875L143.637 207.503L141.114 172.115C141.114 172.115 160.618 172.44 177.392 173.732C194.918 175.089 217.867 181.849 217.867 181.849L243.875 157.823C243.875 157.823 236.323 122 223.737 91.9091Z" fill="#0090FF"/>
</svg>
