<?xml version="1.0" standalone="no"?>
<!DOCTYPE svg PUBLIC "-//W3C//DTD SVG 20010904//EN"
 "http://www.w3.org/TR/2001/REC-SVG-20010904/DTD/svg10.dtd">
<svg version="1.0" xmlns="http://www.w3.org/2000/svg"
 width="260.000000pt" height="260.000000pt" viewBox="0 0 260.000000 260.000000"
 preserveAspectRatio="xMidYMid meet">
<metadata>
Created by potrace 1.14, written by Peter Selinger 2001-2017
</metadata>
<g transform="translate(0.000000,260.000000) scale(0.100000,-0.100000)"
fill="#000000" stroke="none">
<path d="M1265 2443 c-16 -38 -48 -108 -71 -158 -23 -49 -51 -110 -62 -135
-11 -25 -59 -131 -106 -236 -47 -106 -86 -194 -86 -197 0 -3 61 35 136 84 75
50 138 88 141 86 4 -4 -5 -72 -32 -247 -3 -14 -20 -131 -40 -260 -19 -129 -39
-244 -44 -256 -8 -18 -18 -20 -87 -21 -148 -3 -372 -31 -465 -59 -12 -3 -21
15 -42 83 -42 141 -54 205 -52 294 1 102 24 150 97 212 l48 40 56 -49 c93 -81
94 -82 83 -37 -28 123 -28 423 1 499 5 13 8 24 5 24 -2 0 5 30 15 68 l19 67
-103 -107 c-250 -260 -362 -432 -455 -700 -33 -93 -98 -310 -116 -388 -2 -8
-8 -35 -14 -60 l-11 -45 53 -50 c29 -27 87 -82 130 -122 l76 -71 73 19 c63 16
140 32 263 54 36 6 146 13 312 20 l122 4 -4 -47 c-9 -103 -19 -259 -18 -287 0
-31 201 -378 215 -373 4 2 54 82 111 178 84 142 103 182 101 210 -7 107 -16
231 -20 272 l-4 48 137 -5 c245 -9 357 -23 541 -70 l93 -23 72 67 c40 38 98
92 130 122 l58 54 -30 115 c-16 63 -34 127 -40 143 -6 15 -9 27 -7 27 11 0
-111 338 -150 418 -39 78 -154 252 -197 297 -7 7 -28 32 -47 56 -19 24 -79 88
-132 143 -88 92 -96 98 -87 66 17 -59 37 -162 45 -225 8 -69 8 -253 0 -293 -3
-15 -8 -49 -12 -76 -3 -28 -7 -53 -10 -58 -8 -12 3 -10 18 5 7 7 38 34 69 60
l56 47 39 -29 c52 -37 70 -59 90 -106 35 -82 23 -220 -33 -407 -20 -69 -30
-87 -42 -84 -9 3 -56 13 -106 22 -49 9 -98 18 -107 19 -37 8 -207 19 -270 18
-65 -1 -67 0 -72 26 -8 37 -30 180 -41 261 -2 14 -6 40 -10 58 -3 17 -8 49
-11 69 -2 20 -7 50 -10 67 -3 17 -7 45 -9 63 -2 17 -9 57 -14 90 -15 82 -23
153 -17 153 3 0 64 -39 136 -86 72 -47 133 -84 135 -82 4 3 -22 62 -102 238
-12 25 -50 110 -86 190 -36 80 -80 179 -99 220 -19 41 -41 90 -49 108 -8 17
-16 32 -19 32 -3 0 -19 -30 -35 -67z"/>
</g>
</svg>
